PathFileType	4	(x/y/z)	S05_PSF_T03
DataRate	CameraRate	NumFrames	NumMarkers	Units	OrigDataRate	OrigDataStartFrame	OrigNumFrames
240	240	10	50	mm	240	257	410
Frame#	Time	Sternum			R.Acromium			L.Acromium			Top.Head			R.ASIS			L.ASIS			R.PSIS			L.PSIS			R.Great.Tro			L.Great.Tro			R.Iliac.Crest			L.Iliac.Crest			V.Sacral			R.Thigh.Upper.Post			R.Thigh.Lower.Ant			R.Thigh.Lower.Post			R.Thigh.Upper.Ant			R.Knee.Lat			R.Knee.Med			R.Shank.Upper.Post			R.Shank.Lower.Ant			R.Shank.Lower.Post			R.Shank.Upper.Ant			R.Ankle.Lat			R.Ankle.Med			R.Heel.Upper			R.Heel.Med			R.Heel.Lat			R.Toe.Lat			R.Toe.Med			R.Toe.Tip			L.Thigh.Upper.Post			L.Thigh.Lower.Ant			L.Thigh.Lower.Post			L.Thigh.Upper.Ant			L.Knee.Lat			L.Shank.Upper.Post			L.Shank.Lower.Ant			L.Shank.Lower.Post			L.Shank.Upper.Ant			L.Ankle.Lat			L.Ankle.Med			L.Heel.Upper			L.Heel.Med			L.Heel.Lat			L.Toe.Lat			L.Toe.Med			L.Toe.Tip			Cervical.Spine			Back			
		X1	Y1	Z1	X2	Y2	Z2	X3	Y3	Z3	X4	Y4	Z4	X5	Y5	Z5	X6	Y6	Z6	X7	Y7	Z7	X8	Y8	Z8	X9	Y9	Z9	X10	Y10	Z10	X11	Y11	Z11	X12	Y12	Z12	X13	Y13	Z13	X14	Y14	Z14	X15	Y15	Z15	X16	Y16	Z16	X17	Y17	Z17	X18	Y18	Z18	X19	Y19	Z19	X20	Y20	Z20	X21	Y21	Z21	X22	Y22	Z22	X23	Y23	Z23	X24	Y24	Z24	X25	Y25	Z25	X26	Y26	Z26	X27	Y27	Z27	X28	Y28	Z28	X29	Y29	Z29	X30	Y30	Z30	X31	Y31	Z31	X32	Y32	Z32	X33	Y33	Z33	X34	Y34	Z34	X35	Y35	Z35	X36	Y36	Z36	X37	Y37	Z37	X38	Y38	Z38	X39	Y39	Z39	X40	Y40	Z40	X41	Y41	Z41	X42	Y42	Z42	X43	Y43	Z43	X44	Y44	Z44	X45	Y45	Z45	X46	Y46	Z46	X47	Y47	Z47	X48	Y48	Z48	X49	Y49	Z49	X50	Y50	Z50	

257	1.0667	-36.21	1243.6	298.62	-127.2	1503.3	455.48	-145.5	1520.1	130.24	-122.8	1812.3	281.29	-111.4	990.24	432.89	-79.397	994.64	184.28	-299.35	1014	317.47	-286.11	1007	227.17	-212.54	919.08	482.47	-147.45	909.46	97.173	-201.35	1076.9	458.52	-166.93	1070.6	123.34	-308.26	977.62	284.64	-214.73	697.12	470.71	-176.88	613.9	423.4	-246.65	615.6	444.74	-146.86	694.89	451.38	-284.13	522.34	420.56	-273.29	509.32	287.21	-422.44	309.35	402.47	-377.15	230.25	401.48	-438.9	236	382.93	-358.7	304.42	418.01	-416.16	128.91	380.64	-399.43	154.8	292.47	-493.41	85.456	315.35	-484.53	51.91	290.1	-489.98	58.874	354.13	-330.98	36.064	420.44	-287.21	36.437	302.12	-225.86	47.831	351.12	-78.472	679.29	97.473	17.146	633.49	129.84	-41.247	592.69	114.02	-12.919	718.73	116.12	5.1285	516.69	127.21	32.462	310.22	124.82	119.57	290.08	123.44	65.616	245.84	142.66	84.089	350.99	113.12	166.3	133.85	145.79	193.07	169.75	228.09	147.21	60.465	202.98	172.77	49.587	235.07	163.35	37.461	175.23	314.42	129.27	106.84	331.51	162.74	220.83	374.75	203.88	161.82	-181.15	1549.3	299.98	-296.04	1276.2	297.33
258	1.0708	-30.533	1242.4	298.19	-121.57	1502.3	454.88	-139.97	1518.9	129.58	-117.32	1811.4	280.49	-105.88	989.22	432.69	-73.602	993.62	184.13	-293.71	1013.1	316.87	-280.39	1006	226.58	-207.46	918.36	482.18	-141.42	908.52	96.855	-195.87	1076	458.15	-160.96	1069.5	122.95	-302.59	976.67	284.05	-210.56	696.52	470.63	-172.95	613.07	423.56	-242.77	615.09	444.67	-142.66	694.02	451.49	-280.71	521.98	420.51	-269.68	508.76	287.21	-420.48	309.92	402.44	-375.78	230.51	401.51	-437.43	236.7	382.93	-356.8	304.55	418.03	-415.6	129.4	380.66	-398.58	155.28	292.43	-493.1	86.343	315.38	-484.34	52.761	290.1	-489.77	59.698	354.15	-330.93	36.039	420.46	-287.1	36.403	302.16	-225.75	47.613	351.16	-72.096	678.6	97.407	23.44	632.86	130.12	-34.874	592.04	114.1	-6.6009	718.08	116.24	11.527	516.08	127.26	38.727	309.56	124.64	125.79	289.32	123.67	71.716	245.13	142.56	90.442	350.28	113.27	172.26	133.15	145.95	198.67	168.9	228.44	152.79	59.773	202.87	178.29	48.824	235.11	169.11	36.843	175.2	320.47	128.65	107.56	337.13	161.85	221.71	380.58	203.11	162.96	-175.51	1548.3	299.35	-290.41	1275.2	296.9
259	1.075	-24.835	1241.3	297.74	-115.91	1501.4	454.26	-134.42	1517.8	128.9	-111.82	1810.4	279.67	-100.33	988.21	432.48	-67.792	992.63	183.96	-288.04	1012.1	316.26	-274.65	1005	225.98	-202.35	917.65	481.87	-135.36	907.65	96.517	-190.35	1075	457.78	-155.01	1068.4	122.54	-296.91	975.76	283.45	-206.33	695.94	470.53	-168.92	612.26	423.72	-238.81	614.59	444.61	-138.4	693.18	451.59	-277.19	521.62	420.47	-265.97	508.21	287.22	-418.42	310.51	402.45	-374.35	230.79	401.54	-435.89	237.43	382.96	-354.81	304.69	418.06	-414.99	129.94	380.69	-397.71	155.79	292.42	-492.76	87.313	315.45	-484.15	53.698	290.13	-489.54	60.597	354.19	-330.87	36.013	420.48	-286.99	36.373	302.21	-225.65	47.394	351.2	-65.577	678.02	97.354	29.9	632.38	130.41	-28.324	591.51	114.2	-0.14705	717.56	116.36	18.055	515.55	127.32	44.795	308.95	124.5	131.78	288.47	123.94	77.504	244.42	142.49	96.661	349.53	113.46	177.7	132.32	146.14	203.83	167.85	228.82	157.71	59.023	202.78	183.17	47.948	235.16	174.16	36.143	175.2	325.94	127.61	108.28	342.27	160.49	222.59	385.98	201.79	164.08	-169.85	1547.4	298.71	-284.76	1274.2	296.46
260	1.0792	-19.114	1240.2	297.26	-110.23	1500.5	453.61	-128.86	1516.7	128.2	-106.31	1809.5	278.82	-94.766	987.23	432.26	-61.962	991.69	183.78	-282.36	1011.3	315.65	-268.89	1004.1	225.37	-197.21	916.95	481.53	-129.28	906.84	96.161	-184.79	1074.1	457.4	-149.07	1067.3	122.13	-291.22	974.89	282.84	-202.02	695.38	470.42	-164.81	611.48	423.89	-234.75	614.1	444.54	-134.08	692.36	451.68	-273.55	521.26	420.44	-262.15	507.64	287.25	-416.29	311.14	402.48	-372.85	231.11	401.6	-434.29	238.2	383	-352.73	304.84	418.11	-414.33	130.52	380.74	-396.79	156.35	292.43	-492.4	88.373	315.55	-483.95	54.726	290.19	-489.28	61.576	354.26	-330.81	35.989	420.51	-286.88	36.346	302.26	-225.54	47.177	351.24	-58.934	677.53	97.318	36.506	632.02	130.7	-21.619	591.09	114.33	6.4268	717.17	116.46	24.695	515.1	127.39	50.675	308.39	124.39	137.54	287.52	124.24	82.998	243.7	142.45	102.75	348.74	113.67	182.63	131.35	146.36	208.57	166.61	229.23	162	58.234	202.72	187.43	46.975	235.24	178.54	35.377	175.23	330.86	126.2	108.99	346.97	158.7	223.45	390.98	199.96	165.16	-164.17	1546.5	298.04	-279.09	1273.3	296.01
261	1.0833	-13.369	1239.2	296.76	-104.52	1499.6	452.94	-123.29	1515.6	127.47	-100.79	1808.7	277.96	-89.173	986.28	432.03	-56.109	990.8	183.59	-276.65	1010.4	315.03	-263.12	1003.3	224.76	-192.04	916.27	481.17	-123.17	906.09	95.787	-179.2	1073.2	457.01	-143.13	1066.4	121.7	-285.5	974.05	282.22	-197.65	694.84	470.29	-160.61	610.73	424.05	-230.6	613.62	444.48	-129.7	691.58	451.75	-269.81	520.9	420.41	-258.21	507.08	287.29	-414.06	311.81	402.53	-371.28	231.46	401.66	-432.62	239.02	383.07	-350.57	305.03	418.18	-413.63	131.17	380.81	-395.83	156.95	292.47	-492	89.528	315.68	-483.73	55.852	290.27	-489.01	62.641	354.35	-330.74	35.966	420.54	-286.77	36.322	302.32	-225.43	46.964	351.28	-52.188	677.13	97.301	43.235	631.79	130.99	-14.787	590.77	114.5	13.103	716.87	116.55	31.423	514.72	127.47	56.376	307.87	124.33	143.08	286.49	124.58	88.217	242.98	142.44	108.7	347.91	113.92	187.1	130.28	146.58	212.92	165.2	229.64	165.72	57.425	202.68	191.11	45.929	235.34	182.29	34.564	175.28	335.29	124.43	109.68	351.26	156.5	224.28	395.63	197.65	166.22	-158.47	1545.6	297.36	-273.39	1272.4	295.56
262	1.0875	-7.599	1238.2	296.24	-98.777	1498.8	452.26	-117.71	1514.5	126.72	-95.249	1807.8	277.08	-83.553	985.36	431.78	-50.229	989.96	183.39	-270.92	1009.6	314.4	-257.31	1002.5	224.14	-186.83	915.61	480.78	-117.04	905.4	95.398	-173.57	1072.3	456.62	-137.2	1065.4	121.27	-279.75	973.25	281.59	-193.19	694.33	470.14	-156.31	610.02	424.2	-226.35	613.16	444.41	-125.24	690.84	451.82	-265.95	520.55	420.4	-254.16	506.52	287.35	-411.74	312.51	402.6	-369.64	231.85	401.75	-430.87	239.89	383.15	-348.32	305.23	418.26	-412.87	131.87	380.9	-394.82	157.59	292.53	-491.57	90.783	315.83	-483.49	57.082	290.37	-488.7	63.798	354.47	-330.66	35.948	420.58	-286.66	36.302	302.39	-225.32	46.754	351.32	-45.362	676.81	97.305	50.063	631.67	131.27	-7.8558	590.54	114.7	19.861	716.68	116.62	38.218	514.41	127.57	61.906	307.38	124.3	148.42	285.4	124.93	93.183	242.27	142.46	114.53	347.06	114.19	191.16	129.12	146.82	216.93	163.66	230.07	168.92	56.621	202.66	194.28	44.835	235.44	185.46	33.73	175.34	339.26	122.35	110.34	355.18	153.95	225.09	399.94	194.91	167.22	-152.75	1544.8	296.65	-267.68	1271.6	295.1
263	1.0917	-1.8032	1237.2	295.69	-93.012	1498	451.54	-112.11	1513.5	125.95	-89.696	1807.1	276.18	-77.903	984.48	431.52	-44.319	989.17	183.17	-265.16	1008.9	313.77	-251.48	1001.7	223.52	-181.58	914.97	480.37	-110.87	904.78	94.993	-167.9	1071.5	456.21	-131.26	1064.6	120.82	-273.98	972.5	280.94	-188.66	693.84	469.97	-151.92	609.34	424.34	-222	612.72	444.35	-120.71	690.13	451.87	-261.98	520.21	420.39	-250	505.96	287.42	-409.33	313.27	402.7	-367.93	232.27	401.84	-429.06	240.82	383.24	-345.99	305.47	418.35	-412.06	132.63	381.01	-393.76	158.29	292.61	-491.1	92.146	316.02	-483.22	58.424	290.49	-488.36	65.051	354.62	-330.58	35.933	420.62	-286.55	36.286	302.45	-225.21	46.549	351.36	-38.481	676.57	97.33	56.963	631.63	131.55	-0.85534	590.4	114.92	26.681	716.57	116.68	45.055	514.15	127.67	67.277	306.93	124.31	153.57	284.25	125.31	97.92	241.57	142.49	120.24	346.19	114.49	194.85	127.89	147.06	220.64	162.01	230.49	171.67	55.848	202.66	196.98	43.721	235.56	188.13	32.898	175.43	342.82	119.99	110.97	358.78	151.08	225.86	403.98	191.78	168.16	-147.02	1544	295.93	-261.94	1270.8	294.64
264	1.0958	4.0193	1236.3	295.13	-87.22	1497.3	450.81	-106.51	1512.5	125.16	-84.128	1806.4	275.26	-72.225	983.64	431.24	-38.377	988.44	182.94	-259.37	1008.1	313.12	-245.61	1001.1	222.88	-176.29	914.36	479.93	-104.67	904.23	94.574	-162.19	1070.7	455.79	-125.31	1063.7	120.35	-268.18	971.8	280.28	-184.05	693.39	469.79	-147.43	608.7	424.47	-217.55	612.3	444.28	-116.1	689.47	451.9	-257.88	519.89	420.39	-245.71	505.42	287.51	-406.82	314.07	402.81	-366.14	232.75	401.96	-427.16	241.81	383.35	-343.56	305.75	418.45	-411.18	133.46	381.13	-392.64	159.04	292.73	-490.57	93.621	316.23	-482.92	59.883	290.64	-487.99	66.409	354.79	-330.48	35.926	420.66	-286.44	36.272	302.53	-225.1	46.349	351.4	-31.569	676.38	97.375	63.906	631.66	131.81	6.1835	590.32	115.18	33.54	716.52	116.71	51.908	513.95	127.78	72.502	306.52	124.35	158.54	283.07	125.7	102.45	240.89	142.54	125.83	345.3	114.8	198.21	126.61	147.3	224.08	160.28	230.91	174.02	55.131	202.69	199.28	42.615	235.68	190.35	32.095	175.52	346.02	117.39	111.56	362.1	147.95	226.58	407.76	188.32	169.05	-141.26	1543.3	295.18	-256.18	1270	294.16
265	1.1	9.8694	1235.4	294.54	-81.403	1496.6	450.05	-100.89	1511.6	124.34	-78.545	1805.7	274.32	-66.515	982.85	430.95	-32.401	987.78	182.69	-253.54	1007.5	312.46	-239.71	1000.4	222.23	-170.95	913.78	479.47	-98.441	903.75	94.142	-156.44	1069.9	455.37	-119.35	1063	119.88	-262.34	971.15	279.6	-179.35	692.96	469.58	-142.83	608.09	424.6	-212.99	611.9	444.21	-111.4	688.85	451.93	-253.67	519.58	420.4	-241.29	504.88	287.6	-404.22	314.93	402.94	-364.27	233.27	402.09	-425.18	242.86	383.47	-341.05	306.06	418.57	-410.24	134.35	381.27	-391.45	159.84	292.87	-489.99	95.215	316.46	-482.59	61.467	290.8	-487.57	67.876	354.98	-330.39	35.926	420.71	-286.32	36.262	302.6	-225	46.154	351.43	-24.651	676.26	97.439	70.866	631.76	132.07	13.23	590.31	115.46	40.417	716.54	116.71	58.753	513.8	127.89	77.594	306.15	124.42	163.37	281.87	126.1	106.81	240.23	142.61	131.31	344.42	115.13	201.3	125.31	147.54	227.32	158.49	231.33	176.04	54.493	202.74	201.21	41.545	235.81	192.17	31.343	175.63	348.91	114.59	112.11	365.18	144.59	227.25	411.33	184.58	169.86	-135.49	1542.6	294.41	-250.39	1269.3	293.68
266	1.1042	15.748	1234.6	293.94	-75.561	1496	449.28	-95.26	1510.7	123.51	-72.948	1805.1	273.37	-60.776	982.11	430.64	-26.388	987.18	182.43	-247.68	1006.8	311.8	-233.77	999.86	221.57	-165.56	913.23	478.98	-92.18	903.34	93.699	-150.65	1069.2	454.92	-113.36	1062.3	119.39	-256.47	970.55	278.91	-174.57	692.57	469.36	-138.14	607.53	424.72	-208.32	611.52	444.14	-106.62	688.28	451.94	-249.34	519.29	420.42	-236.75	504.35	287.72	-401.52	315.85	403.07	-362.33	233.84	402.23	-423.12	243.98	383.6	-338.44	306.42	418.71	-409.22	135.32	381.42	-390.2	160.7	293.04	-489.35	96.933	316.72	-482.22	63.182	290.97	-487.11	69.461	355.18	-330.28	35.937	420.76	-286.21	36.254	302.68	-224.9	45.963	351.47	-17.751	676.18	97.517	77.815	631.9	132.3	20.255	590.34	115.75	47.29	716.6	116.69	65.567	513.69	128	82.567	305.81	124.51	168.06	280.68	126.49	111.03	239.59	142.69	136.69	343.55	115.46	204.15	124	147.77	230.37	156.69	231.73	177.79	53.953	202.82	202.85	40.535	235.95	193.67	30.663	175.75	351.52	111.64	112.62	368.05	141.07	227.86	414.72	180.6	170.59	-129.7	1542	293.62	-244.57	1268.7	293.19
